DBRep_DrawableShape

CASCADE Topology V1, (c) Matra-Datavision
Locations 2
1
              1               0               0               0 
              0               1               0            5000 
              0               0               1               0 
2  1 -1 0
Curve2ds 5
1 0 0 0 -1 
1 1 0 0 -1 
1 0 0 1 0 
1 0 0 1 0 
1 0 -5000 1 0 
Curves 2
1 8000 5.2939559203393795e-23 3.7303493627405298e-14 0 1 0 
7 0 0  3 110 108  8000 0 0  8001.6121289022158 0 4.1637996418612069  7985.6534901917839 0 -3.8121321211298476  7977.7786141958131 0 8.7090626068035384  7945.6652525315076 0 8.5925404848739078  7910.0248193958359 0 18.394650476948271  7860.6185028483014 0 26.792097339550011  7801.9567058290158 0 38.440813856019474  7732.5015217100063 0 51.451537445869576  7619.730786387152 0 72.586813383850199  7494.1302747610098 0 95.544779969004168  7355.6767543544047 0 120.29399484739211  7237.8257014153833 0 140.9407545089413  7111.1097154695526 0 162.71633486590468  6975.8838535886262 0 185.50072538185515  6832.477288988639 0 209.05913859383654  6681.2590434497106 0 233.34738490215466  6465.6981415989221 0 267.02617093745073  6240.6837436347942 0 300.77796633243554  6006.9721655282756 0 334.22956323716494  5823.3121703269862 0 359.65592226982619  5634.5943391097535 0 384.87303467325921  5441.3281351042942 0 409.72275716037569  5244.052450447829 0 434.03687195145557  5043.3265500348025 0 457.70555369059457  4769.835089403181 0 488.36254746975698  4493.7860628928238 0 516.80429405868244  4216.6905271648266 0 542.60655709630475  4006.9518181440153 0 560.66340158799528  3797.1470952817563 0 577.14323387595277  3587.8447876705686 0 591.94485291471381  3379.6520240792524 0 604.88885510471732  3173.112873929128 0 615.88831280470777  2900.0974498139599 0 627.79658099830033  2633.426997654331 0 635.29604433583256  2374.9305315621541 0 638.09631303176991  2185.1651300976196 0 637.80222028362709  2000.3863505425406 0 635.03575127195131  1821.0410472099097 0 629.81685260000586  1645.5784305416855 0 621.95734525322837  1473.8213426885168 0 611.58225397656543  1306.9903260888268 0 595.0050532915609  1094.8062535579074 0 566.20780069506714  900.04612405228204 0 528.2640893424325  724.34112078175269 0 483.28726476515214  603.01641217240376 0 446.80064775582639  492.17795231484951 0 408.02249534970053  392.06850592674357 0 367.54949911708059  302.95088945217441 0 325.86899565910124  224.9872138882364 0 283.52359977631886  136.48921706341937 0 226.98495891565562  70.207813022089283 0 170.60185048284222  26.891690691611029 0 115.73766466234991  5.9289227586234228 0 75.755121956582258  -3.6185802378723935 0 37.005515626280072  -1.8432694995112251 0 -0.18190563105109447  10.767845716087745 0 -35.329342448493158  34.115648579530827 0 -67.49668432857473  79.043474251736995 0 -106.31603482765099  144.55147743038168 0 -139.59028356071624  229.87325978792282 0 -167.62326322228671  303.15562554016606 0 -186.19835936280762  385.61584838607769 0 -202.51714488865542  476.93387291069467 0 -216.82638666059077  576.80575004084233 0 -229.37318932514506  684.91934946339666 0 -240.40647388363661  839.60267747065507 0 -253.50039859377574  1009.571187714576 0 -264.78436480969896  1193.2893853022447 0 -275.51257763782849  1337.7735204004293 0 -283.68340163409175  1489.3941289882871 0 -292.23039215834086  1650.0601206947349 0 -302.20541615533295  1819.8453572349285 0 -310.10977555218903  1997.7572676879843 0 -316.20862157883903  2181.1264752183088 0 -320.36812440952701  2432.2676482769825 0 -323.43302453541514  2692.1285159801564 0 -322.92296545933937  2959.0229189246938 0 -319.21706002934195  3161.9850072555232 0 -314.96260501619156  3367.2519802850638 0 -309.34046684961515  3574.273101117742 0 -302.46429709585448  3782.4859894472556 0 -294.49121343850572  3991.336544024964 0 -285.4967833755527  4268.638022465746 0 -272.40813865352067  4545.8773237197502 0 -257.76318580366546  4821.5820144997333 0 -241.95142589337166  5025.0277060062817 0 -229.71854764074627  5225.7109867799927 0 -217.14124806900065  5423.0685799349894 0 -204.34496889056621  5616.5721974100197 0 -191.38053735510721  5805.6590467300248 0 -178.32683920688788  6047.7684118737161 0 -161.17588348000089  6282.0827568370614 0 -143.95916448771902  6507.8140798545846 0 -126.82593261495876  6667.387721506062 0 -114.43456199553236  6819.6504336052385 0 -102.3923539317618  6964.1955421198745 0 -90.737244283300299  7100.6032926851076 0 -79.52191989978715  7228.5028233024432 0 -68.827232852376468  7381.0313400032828 0 -55.850290636617764  7521.0323015240019 0 -43.681368424168383  7648.3763326413537 0 -32.340712674890362  7728.9076462875501 0 -25.085212081332763  7799.1857478352231 0 -18.691094070000911  7859.0246519681123 0 -13.172655799374567  7908.2255657178721 0 -8.6181171019505278  7946.6695201477287 0 -5.0200692002921867  7976.0438063234551 0 -2.2588285567192852  7992.6193228556858 0 -0.69790404107824855  8000 0 0 
 0 4 0.00023577900874319988 1 0.00096490313536987614 1 0.0022039304671436066 1 0.0039655141659628674 1 0.0062508129103843561 1 0.0090594625803614368 1 0.012390165823597794 1 0.01623466940094568 1 0.025397470708766752 1 0.030681222860159455 1 0.036410776740318278 1 0.042555548856953423 1 0.049093450697834509 1 0.056006637352962282 1 0.063267350572390357 1 0.070855713794920727 1 0.086908188654322899 1 0.095334206101260782 1 0.1039969942139392 1 0.11287909327624507 1 0.1219648581988222 1 0.13123653418535661 1 0.14067748814765907 1 0.150272204982283 1 0.16987913920472003 1 0.17986373305359055 1 0.18995336775008889 1 0.20013790595554057 1 0.21040435448057812 1 0.22074805273011444 1 0.23115320084999302 1 0.24162010946429485 1 0.26269362096627286 1 0.27329038310825937 1 0.28391259243888595 1 0.29456287070896353 1 0.3052404083793917 1 0.31593938895541973 1 0.32707061846946139 1 0.3383830382394748 1 0.34968840628731962 1 0.372194594508371 1 0.38336057152829761 1 0.39445840556286771 1 0.40547932856039665 1 0.41641337819222873 1 0.42725582564371084 1 0.43800457939679471 1 0.44865854843484576 1 0.46969057135122683 1 0.4800763387756008 1 0.4903803248482449 1 0.50064504254784759 1 0.51093362916342677 1 0.52112691851306803 1 0.53115566767577627 1 0.54107077551140004 1 0.56068415425695495 1 0.57041154744659772 1 0.58010103188976625 1 0.58976235868904037 1 0.59940139601820974 1 0.60902428639022843 1 0.61863601560755077 1 0.62824074738175495 1 0.64744152703752877 1 0.65705197978444851 1 0.66667114360005353 1 0.67631636524321093 1 0.68614628192544025 1 0.69639272809618891 1 0.70666177670665598 1 0.71695315171282115 1 0.72725705549451114 1 0.74787089299403642 1 0.75816552075830934 1 0.76844216227007023 1 0.77869169052514764 1 0.78890401941339561 1 0.79906852112169691 1 0.80917399689826031 1 0.8192090840244356 1 0.83901097216148435 1 0.84875498414975092 1 0.85837120460240168 1 0.86784390889849117 1 0.87716343449367939 1 0.88630314595770732 1 0.89524614756026466 1 0.90397405985656065 1 0.92069258036137824 1 0.92864211224293247 1 0.93627964118396179 1 0.94359030719936543 1 0.95054351474008758 1 0.95711540334744105 1 0.96328558907324091 1 0.96903025027975775 1 0.97916948940900306 1 0.98352285632881298 1 0.98738424660081336 1 0.99074095076565505 1 0.99357880555137734 1 0.99590088968108303 1 0.99769814889934949 1 0.99897824806800328 1 1 4
Polygon3D 0
PolygonOnTriangulations 0
Surfaces 3
6 -0 -1 -0 
7 0 0  3 110 108  8000 0 0  8001.6121289022158 0 4.1637996418612069  7985.6534901917839 0 -3.8121321211298476  7977.7786141958131 0 8.7090626068035384  7945.6652525315076 0 8.5925404848739078  7910.0248193958359 0 18.394650476948271  7860.6185028483014 0 26.792097339550011  7801.9567058290158 0 38.440813856019474  7732.5015217100063 0 51.451537445869576  7619.730786387152 0 72.586813383850199  7494.1302747610098 0 95.544779969004168  7355.6767543544047 0 120.29399484739211  7237.8257014153833 0 140.9407545089413  7111.1097154695526 0 162.71633486590468  6975.8838535886262 0 185.50072538185515  6832.477288988639 0 209.05913859383654  6681.2590434497106 0 233.34738490215466  6465.6981415989221 0 267.02617093745073  6240.6837436347942 0 300.77796633243554  6006.9721655282756 0 334.22956323716494  5823.3121703269862 0 359.65592226982619  5634.5943391097535 0 384.87303467325921  5441.3281351042942 0 409.72275716037569  5244.052450447829 0 434.03687195145557  5043.3265500348025 0 457.70555369059457  4769.835089403181 0 488.36254746975698  4493.7860628928238 0 516.80429405868244  4216.6905271648266 0 542.60655709630475  4006.9518181440153 0 560.66340158799528  3797.1470952817563 0 577.14323387595277  3587.8447876705686 0 591.94485291471381  3379.6520240792524 0 604.88885510471732  3173.112873929128 0 615.88831280470777  2900.0974498139599 0 627.79658099830033  2633.426997654331 0 635.29604433583256  2374.9305315621541 0 638.09631303176991  2185.1651300976196 0 637.80222028362709  2000.3863505425406 0 635.03575127195131  1821.0410472099097 0 629.81685260000586  1645.5784305416855 0 621.95734525322837  1473.8213426885168 0 611.58225397656543  1306.9903260888268 0 595.0050532915609  1094.8062535579074 0 566.20780069506714  900.04612405228204 0 528.2640893424325  724.34112078175269 0 483.28726476515214  603.01641217240376 0 446.80064775582639  492.17795231484951 0 408.02249534970053  392.06850592674357 0 367.54949911708059  302.95088945217441 0 325.86899565910124  224.9872138882364 0 283.52359977631886  136.48921706341937 0 226.98495891565562  70.207813022089283 0 170.60185048284222  26.891690691611029 0 115.73766466234991  5.9289227586234228 0 75.755121956582258  -3.6185802378723935 0 37.005515626280072  -1.8432694995112251 0 -0.18190563105109447  10.767845716087745 0 -35.329342448493158  34.115648579530827 0 -67.49668432857473  79.043474251736995 0 -106.31603482765099  144.55147743038168 0 -139.59028356071624  229.87325978792282 0 -167.62326322228671  303.15562554016606 0 -186.19835936280762  385.61584838607769 0 -202.51714488865542  476.93387291069467 0 -216.82638666059077  576.80575004084233 0 -229.37318932514506  684.91934946339666 0 -240.40647388363661  839.60267747065507 0 -253.50039859377574  1009.571187714576 0 -264.78436480969896  1193.2893853022447 0 -275.51257763782849  1337.7735204004293 0 -283.68340163409175  1489.3941289882871 0 -292.23039215834086  1650.0601206947349 0 -302.20541615533295  1819.8453572349285 0 -310.10977555218903  1997.7572676879843 0 -316.20862157883903  2181.1264752183088 0 -320.36812440952701  2432.2676482769825 0 -323.43302453541514  2692.1285159801564 0 -322.92296545933937  2959.0229189246938 0 -319.21706002934195  3161.9850072555232 0 -314.96260501619156  3367.2519802850638 0 -309.34046684961515  3574.273101117742 0 -302.46429709585448  3782.4859894472556 0 -294.49121343850572  3991.336544024964 0 -285.4967833755527  4268.638022465746 0 -272.40813865352067  4545.8773237197502 0 -257.76318580366546  4821.5820144997333 0 -241.95142589337166  5025.0277060062817 0 -229.71854764074627  5225.7109867799927 0 -217.14124806900065  5423.0685799349894 0 -204.34496889056621  5616.5721974100197 0 -191.38053735510721  5805.6590467300248 0 -178.32683920688788  6047.7684118737161 0 -161.17588348000089  6282.0827568370614 0 -143.95916448771902  6507.8140798545846 0 -126.82593261495876  6667.387721506062 0 -114.43456199553236  6819.6504336052385 0 -102.3923539317618  6964.1955421198745 0 -90.737244283300299  7100.6032926851076 0 -79.52191989978715  7228.5028233024432 0 -68.827232852376468  7381.0313400032828 0 -55.850290636617764  7521.0323015240019 0 -43.681368424168383  7648.3763326413537 0 -32.340712674890362  7728.9076462875501 0 -25.085212081332763  7799.1857478352231 0 -18.691094070000911  7859.0246519681123 0 -13.172655799374567  7908.2255657178721 0 -8.6181171019505278  7946.6695201477287 0 -5.0200692002921867  7976.0438063234551 0 -2.2588285567192852  7992.6193228556858 0 -0.69790404107824855  8000 0 0 
 0 4 0.00023577900874319988 1 0.00096490313536987614 1 0.0022039304671436066 1 0.0039655141659628674 1 0.0062508129103843561 1 0.0090594625803614368 1 0.012390165823597794 1 0.01623466940094568 1 0.025397470708766752 1 0.030681222860159455 1 0.036410776740318278 1 0.042555548856953423 1 0.049093450697834509 1 0.056006637352962282 1 0.063267350572390357 1 0.070855713794920727 1 0.086908188654322899 1 0.095334206101260782 1 0.1039969942139392 1 0.11287909327624507 1 0.1219648581988222 1 0.13123653418535661 1 0.14067748814765907 1 0.150272204982283 1 0.16987913920472003 1 0.17986373305359055 1 0.18995336775008889 1 0.20013790595554057 1 0.21040435448057812 1 0.22074805273011444 1 0.23115320084999302 1 0.24162010946429485 1 0.26269362096627286 1 0.27329038310825937 1 0.28391259243888595 1 0.29456287070896353 1 0.3052404083793917 1 0.31593938895541973 1 0.32707061846946139 1 0.3383830382394748 1 0.34968840628731962 1 0.372194594508371 1 0.38336057152829761 1 0.39445840556286771 1 0.40547932856039665 1 0.41641337819222873 1 0.42725582564371084 1 0.43800457939679471 1 0.44865854843484576 1 0.46969057135122683 1 0.4800763387756008 1 0.4903803248482449 1 0.50064504254784759 1 0.51093362916342677 1 0.52112691851306803 1 0.53115566767577627 1 0.54107077551140004 1 0.56068415425695495 1 0.57041154744659772 1 0.58010103188976625 1 0.58976235868904037 1 0.59940139601820974 1 0.60902428639022843 1 0.61863601560755077 1 0.62824074738175495 1 0.64744152703752877 1 0.65705197978444851 1 0.66667114360005353 1 0.67631636524321093 1 0.68614628192544025 1 0.69639272809618891 1 0.70666177670665598 1 0.71695315171282115 1 0.72725705549451114 1 0.74787089299403642 1 0.75816552075830934 1 0.76844216227007023 1 0.77869169052514764 1 0.78890401941339561 1 0.79906852112169691 1 0.80917399689826031 1 0.8192090840244356 1 0.83901097216148435 1 0.84875498414975092 1 0.85837120460240168 1 0.86784390889849117 1 0.87716343449367939 1 0.88630314595770732 1 0.89524614756026466 1 0.90397405985656065 1 0.92069258036137824 1 0.92864211224293247 1 0.93627964118396179 1 0.94359030719936543 1 0.95054351474008758 1 0.95711540334744105 1 0.96328558907324091 1 0.96903025027975775 1 0.97916948940900306 1 0.98352285632881298 1 0.98738424660081336 1 0.99074095076565505 1 0.99357880555137734 1 0.99590088968108303 1 0.99769814889934949 1 0.99897824806800328 1 1 4
9 0 0 0 0 3 3 110 4 108 2 8000 0 0  9219.6797072226418 5991.3495503432532 756.59509393505095  10431.465303905394 11993.833477179978 1319.0075125271433  11659.468306999999 18000 1685.570892  
8001.6121289022158 0 4.1637996418612069  9220.8426267920549 5991.3495500756571 759.63921342810124  10432.170051069965 11993.833477429 1320.8937430822994  11659.723715775619 17999.999997542614 1686.2548550717631  
7985.6534901917839 0 -3.8121321211298476  9209.3461292984648 5991.3495507394036 753.4346491078029  10425.179333319145 11993.833476811335 1316.8458426539391  11657.195808717755 18000.000003637899 1684.7665771465695  
7977.7786141958131 0 8.7090626068035384  9203.6807349302544 5991.3495500833433 762.21964005734935  10421.722619925375 11993.833477421846 1322.0882893290832  11655.948605048765 17999.999997613202 1686.6472859711153  
7945.6652525315076 0 8.5925404848739078  9180.5538486691294 5991.3495504660841 761.20401532864207  10407.648413608469 11993.833477065673 1320.9523027668351  11650.86193104479 18000.000001127955 1686.1843407831284  
7910.0248193958359 0 18.394650476948271  9154.8915259631103 5991.3495502935002 767.2260398731928  10392.024086269281 11993.833477226282 1324.0606965077545  11645.21670161542 17999.999999543121 1687.2487094546177  
7860.6185028483014 0 26.792097339550011  9119.3149136223692 5991.3495503616468 771.83747863971757  10370.367191856261 11993.833477162865 1326.0861844539268  11637.390976309063 18000.000000168868 1687.8993490273615  
7801.9567058290158 0 38.440813856019474  9077.0744138969858 5991.3495503369304 778.52081290440356  10344.652459976693 11993.833477185864 1329.2293954205734  11628.099249063045 17999.99999994196 1688.9385355723243  
7732.5015217100063 0 51.451537445869576  9027.0616488569412 5991.349550345125 785.87138351081694  10314.20665390266 11993.833477178239 1332.6072823922575  11617.097895891893 18000.000000017153 1690.0447591979469  
7619.730786387152 0 72.586813383850199  8945.8586746805468 5991.3495503421909 797.81358860182524  10264.77328197777 11993.83347718097 1338.0964527161725  11599.235581484163 17999.999999990294 1691.8425139144488  
7494.1302747610098 0 95.544779969004168  8855.4173038037625 5991.3495503437662 810.69549533719328  10209.715983907492 11993.833477179493 1343.9543041909455  11579.341092939365 18000.0000000047 1693.7522905234225  
7355.6767543544047 0 120.29399484739211  8755.720869815108 5991.3495503430586 824.49375572346185  10149.024510062101 11993.833477180167 1350.1662664674789  11557.410754536628 17999.999999998192 1695.7687581883583  
7237.8257014153833 0 140.9407545089413  8670.8596752471531 5991.3495503433296 835.93659254826912  10097.364195617994 11993.8334771799 1355.2693632812814  11538.743741054112 18000.000000000728 1697.4184423988813  
7111.1097154695526 0 162.71633486590468  8579.6151005057454 5991.3495503432323 847.93467499875783  10041.817905703507 11993.833477180011 1360.5698117125467  11518.672568270023 17999.99999999976 1699.1247591832612  
6975.8838535886262 0 185.50072538185515  8482.242804176718 5991.3495503432587 860.41191417652749  9982.5412946979195 11993.833477179962 1366.0268204199065  11497.253474281159 18000.000000000065 1700.8735491729612  
6832.477288988639 0 209.05913859383654  8378.9798175629658 5991.3495503432532 873.20880329770557  9919.6786479468392 11993.833477179982 1371.5482677518621  11474.538597198421 17999.999999999985 1702.6320424683531  
6681.2590434497106 0 233.34738490215466  8270.0918580983671 5991.3495503432514 886.30423918353165  9853.3917352299541 11993.833477179978 1377.1271845607048  11450.586389584278 18000.000000000007 1704.3983268661541  
6465.6981415989221 0 267.02617093745073  8114.8725834554507 5991.349550343255 904.29199183469223  9758.9000481457042 11993.833477179973 1384.6648907232038  11416.442629572779 17999.999999999993 1706.7660622702606  
6240.6837436347942 0 300.77796633243554  7952.8461195024865 5991.3495503432514 922.05762757048012  9660.264392195224 11993.83347717998 1391.9159470714139  11380.801483678802 18000 1709.0144004665331  
6006.9721655282756 0 334.22956323716494  7784.557056321144 5991.3495503432514 939.35439584401138  9557.8163077923782 11993.833477179973 1398.7417799412051  11343.782749510177 17999.999999999989 1711.0944860216696  
5823.3121703269862 0 359.65592226982619  7652.3087208645793 5991.3495503432541 952.32672782537304  9477.3084648658296 11993.833477179978 1403.7271715884135  11314.691930929383 18000.000000000007 1712.5921591688848  
5634.5943391097535 0 384.87303467325921  7516.4183776899072 5991.349550343255 965.00142898537956  9394.5835093651931 11993.833477179982 1408.4500297870584  11284.799978587907 17999.999999999996 1713.98647481939  
5441.3281351042942 0 409.72275716037569  7377.2528808354782 5991.3495503432532 977.27941597670622  9309.8647578608216 11993.833477179982 1412.8580260951494  11254.187585845213 18000.000000000015 1715.2593414515595  
5244.052450447829 0 434.03687195145557  7235.2002759548304 5991.3495503432578 989.05524153040426  9223.3884424715798 11993.83347717998 1416.8953530348942  11222.940113860519 18000 1716.3914864789397  
5043.3265500348025 0 457.70555369059457  7090.6632599479162 5991.3495503432459 1000.2660528402455  9135.3997192301267 11993.833477179971 1420.5326058857499  11191.146141884292 17999.999999999985 1717.37319602973  
4769.835089403181 0 488.36254746975698  6893.7298433269771 5991.3495503432587 1014.3946533770235  9015.5140146229369 11993.833477179993 1424.7885939508749  11147.826475773818 18000.000000000029 1718.4576769333598  
4493.7860628928238 0 516.80429405868244  6694.9547906685202 5991.3495503432541 1026.8538182147879  8894.5071974794882 11993.833477179976 1427.98446714954  11104.101699697911 17999.999999999982 1719.1544931192655  
4216.6905271648266 0 542.60655709630475  6495.4261740614438 5991.3495503432523 1037.3819475434123  8773.0416433597256 11993.833477179978 1429.9846888917252  11060.211165770501 18000.000000000007 1719.417128421341  
4006.9518181440153 0 560.66340158799528  6344.399301131938 5991.3495503432559 1044.2899608166304  8681.102125133646 11993.833477179982 1430.8509700918487  11026.989611841142 18000.000000000007 1719.3816582206846  
3797.1470952817563 0 577.14323387595277  6193.3248825952451 5991.3495503432514 1050.060499267478  8589.1336753548603 11993.833477179975 1431.0217301873781  10993.757601768637 17999.999999999996 1719.094527232802  
3587.8447876705686 0 591.94485291471381  6042.6122496306825 5991.3495503432559 1054.6371958294326  8497.3854550959586 11993.833477179982 1430.4716645944332  10960.605170723054 18000.000000000007 1718.5475225292873  
3379.6520240792524 0 604.88885510471732  5892.6985621874301 5991.3495503432505 1057.9085253423127  8406.123609019367 11993.833477179975 1429.142347456549  10927.628488619124 17999.999999999996 1717.7205324000697  
3173.112873929128 0 615.88831280470777  5743.9755970376173 5991.3495503432569 1059.8276839011351  8315.5866273606243 11993.833477179982 1427.0139355288848  10894.913728008627 18000.000000000007 1716.6072754067063  
2900.0974498139599 0 627.79658099830033  5547.3849515540223 5991.3495503432496 1060.469714948885  8195.9096032483867 11993.833477179976 1423.0436215799402  10851.669461308271 17999.999999999985 1714.7173074989325  
2633.426997654331 0 635.29604433583256  5355.3631461607247 5991.3495503432541 1058.1214455327779  8079.0139079531418 11993.833477179975 1417.3490492421329  10809.430205902096 18000.000000000007 1712.2142664657699  
2374.9305315621541 0 638.09631303176991  5169.2271964475067 5991.3495503432569 1052.6269373236248  7965.7012993555363 11993.833477179985 1409.8642115553455  10768.485670576574 18000 1709.0773256534417  
2185.1651300976196 0 637.80222028362709  5032.582525591014 5991.3495503432496 1046.9013189844472  7882.5171384299092 11993.833477179982 1403.3364808787746  10738.427786596258 17999.999999999993 1706.4008419596796  
2000.3863505425406 0 635.03575127195131  4899.5285858754251 5991.3495503432514 1039.5403109270353  7801.5188730117943 11993.833477179975 1395.8899768858912  10709.159760976832 18000.000000000015 1703.4003525606299  
1821.0410472099097 0 629.81685260000586  4770.3871301418694 5991.3495503432605 1030.5712541178773  7722.9023897866155 11993.833477179982 1387.5485361052604  10680.752368588735 18000 1700.0852229327938  
1645.5784305416855 0 621.95734525322837  4644.0414930127445 5991.3495503432478 1019.8135910417675  7645.9878863494268 11993.833477179978 1378.1771381983226  10652.959976209928 17999.999999999996 1696.4040408232829  
1473.8213426885168 0 611.58225397656543  4520.3641010514621 5991.3495503432559 1007.3521941338095  7570.6977171329872 11993.83347717998 1367.8247808957042  10625.754518825577 18000 1692.3742340316703  
1306.9903260888268 0 595.0050532915609  4400.2338302179305 5991.3495503432541 990.56797229745007  7497.5669019365696 11993.833477179973 1354.9119383564653  10599.329327627865 18000.000000000007 1687.4265526356571  
1094.8062535579074 0 566.20780069506714  4247.4461155436084 5991.3495503432487 963.66666937694379  7404.5554547696747 11993.833477179985 1335.0976979794509  10565.720439694833 17999.999999999985 1679.9073949042404  
900.04612405228204 0 528.2640893424325  4107.2048874885495 5991.3495503432587 930.68552876464855  7319.1818406681596 11993.833477179969 1311.8499799791284  10534.871418422037 18000.000000000015 1671.1754034174846  
724.34112078175269 0 483.28726476515214  3980.684710771432 5991.3495503432496 893.19372808373771  7242.1610906281949 11993.833477179985 1286.1528392822756  10507.040630958876 17999.999999999993 1661.5892108214048  
603.01641217240376 0 446.80064775582639  3893.322239886641 5991.3495503432587 863.39554805155854  7188.9780830722257 11993.833477179985 1266.021761235193  10487.823409386365 18000.000000000015 1654.1065486992698  
492.17795231484951 0 408.02249534970053  3813.5106203698538 5991.3495503432514 832.25200329799588  7140.3917528619331 11993.833477179971 1245.2368340658236  10470.267157063441 17999.999999999993 1646.4048494047292  
392.06850592674357 0 367.54949911708059  3741.4246520205734 5991.3495503432532 800.19978310369675  7096.5085154331446 11993.83347717998 1224.0685834618375  10454.410324676595 18000.000000000007 1638.5823508364331  
302.95088945217441 0 325.86899565910124  3677.2535957585196 5991.3495503432514 767.59745474082865  7057.4435693381765 11993.833477179973 1202.7401073648825  10440.294544524564 17999.999999999993 1630.7201795177098  
224.9872138882364 0 283.52359977631886  3621.114167460828 5991.3495503432578 734.84044873500716  7023.2679918966342 11993.83347717998 1181.4954086222549  10427.945490620888 18000.000000000007 1622.906860058426  
136.48921706341937 0 226.98495891565562  3557.3892798847105 5991.3495503432468 691.55721454498689  6984.4746590171289 11993.83347717998 1153.6558655276569  10413.927854442238 17999.999999999993 1612.6908319198942  
70.207813022089283 0 170.60185048284222  3509.6619256876302 5991.3495503432587 649.03150037654336  6955.4200312471376 11993.833477179984 1126.6337906435633  10403.429213446205 18000.000000000015 1602.807404949958  
26.891690691611029 0 115.73766466234991  3478.471213132339 5991.3495503432532 608.26680304665581  6936.4323011598044 11993.833477179975 1101.0537976486578  10396.568158991689 17999.999999999985 1593.4837346099516  
5.9289227586234228 0 75.755121956582258  3463.3765280762127 5991.349550343255 578.86744493329843  6927.2432077862786 11993.833477179982 1082.7697974707321  10393.247762779865 18000.000000000011 1586.836014189902  
-3.6185802378723935 0 37.005515626280072  3456.5016380867764 5991.3495503432532 550.68756811365756  6923.0580396592804 11993.833477179984 1065.4127229032165  10391.735484734134 18000 1580.542518604829  
-1.8432694995112251 0 -0.18190563105109447  3457.7799867987178 5991.3495503432532 523.96157519594772  6923.8362546039671 11993.83347717998 1049.1241920656241  10392.016687018177 17999.999999999993 1574.654321602329  
10.767845716087745 0 -35.329342448493158  3466.860898000863 5991.3495503432532 499.01935933788604  6929.3643630728093 11993.833477179978 1034.0978452280187  10394.01422241507 17999.999999999993 1569.2406409781834  
34.115648579530827 0 -67.49668432857473  3483.6729809030976 5991.3495503432532 476.53499256051265  6939.5989417258161 11993.833477179967 1020.7436233244529  10397.712398224536 18000.000000000007 1564.4495820173752  
79.043474251736995 0 -106.31603482765099  3516.0242354551424 5991.3495503432587 449.88773981436492  6959.2931636348467 11993.83347718 1005.1926641415621  10404.828737462547 18000.000000000004 1558.8999035965221  
144.55147743038168 0 -139.59028356071624  3563.1946809731412 5991.3495503432487 427.83132956089372  6988.0087774283611 11993.833477179965 992.77336867467284  10415.204876284784 17999.999999999993 1554.5170931882224  
229.87325978792282 0 -167.62326322228671  3624.6324707955423 5991.349550343255 410.12471933871984  7025.4098010363286 11993.833477179982 983.32632007152563  10428.719414880337 18000.000000000011 1551.2422180401463  
303.15562554016606 0 -186.19835936280762  3677.4010186983264 5991.3495503432496 398.87863915127673  7057.5333176278946 11993.833477179978 977.63121331592242  10440.326973828596 17999.999999999982 1549.3043074582392  
385.61584838607769 0 -202.51714488865542  3736.7782780091948 5991.3495503432569 389.52392903650383  7093.679976797901 11993.833477179975 973.23749308432332  10453.388256379809 18000.000000000022 1547.852335168443  
476.93387291069467 0 -216.82638666059077  3802.5337889107382 5991.3495503432514 381.8736085318435  7133.7094719561137 11993.833477179984 970.02587483970899  10467.852570965897 17999.999999999993 1546.8426287805362  
576.80575004084233 0 -229.37318932514506  3874.4486906835059 5991.349550343255 375.74091067049989  7177.4885694621207 11993.83347717998 967.87747527959903  10483.671773238239 18000.000000000004 1546.2316886690376  
684.91934946339666 0 -240.40647388363661  3952.2982141994548 5991.3495503432541 370.93752941565072  7224.8804547190875 11993.833477179971 966.67234125300388  10500.796421645515 17999.999999999996 1545.9756079183567  
839.60267747065507 0 -253.50039859377574  4063.6812831952975 5991.3495503432496 366.00347334169226  7292.6862935384597 11993.83347717998 966.13152866269536  10525.297481002763 18000 1546.0372397814015  
1009.571187714576 0 -264.78436480969896  4186.0707662932737 5991.3495503432569 362.8168433641394  7367.1924430086765 11993.833477179976 966.90179617197907  10552.21963465853 18000 1546.598471715776  
1193.2893853022447 0 -275.51257763782849  4318.361018857564 5991.3495503432496 360.42990759417353  7447.7257944857929 11993.833477179978 968.37999108237727  10581.319672043981 18000 1547.4386091916047  
1337.7735204004293 0 -283.68340163409175  4422.3999307068461 5991.3495503432569 358.74448626306446  7511.0607982122592 11993.833477179982 969.65958474954778  10604.205229854622 17999.999999999993 1548.141675750785  
1489.3941289882871 0 -292.23039215834086  4531.5776199093398 5991.3495503432514 356.99555450885998  7577.5240894809267 11993.833477179978 971.01443373850748  10628.221170038074 18000.000000000015 1548.8838266697824  
1650.0601206947349 0 -302.20541615533295  4647.268628999509 5991.3495503432569 354.48115698981752  7647.9524517818209 11993.833477179985 972.04648353449943  10653.669852184095 18000 1549.5242686616573  
1819.8453572349285 0 -310.10977555218903  4769.5261489732202 5991.3495503432505 353.72276000807148  7722.3782530102089 11993.833477179967 974.29631621292663  10680.562977760241 18000 1550.6203201359804  
1997.7572676879843 0 -316.20862157883903  4897.6354581795495 5991.3495503432569 354.50058936510572  7800.3664088395199 11993.833477179989 977.61390219890836  10708.743326502841 18000.000000000004 1552.1160632564533  
2181.1264752183088 0 -320.36812440952701  5029.6744048737364 5991.3495503432523 356.83345474242469  7880.7467819444937 11993.833477179967 981.96807110347061  10737.788085643251 18000.000000000004 1553.9957906220261  
2432.2676482769825 0 -323.43302453541514  5210.5140192738563 5991.3495503432541 361.92369446750155  7990.8351795763692 11993.833477179987 989.08857020849473  10777.567579866831 17999.999999999989 1556.9887260407354  
2692.1285159801564 0 -322.92296545933937  5397.6324415905528 5991.349550343255 369.84152463765849  8104.7458691525244 11993.833477179975 998.07469616290405  10818.728231387306 18000.000000000018 1560.6709158989941  
2959.0229189246938 0 -319.21706002934195  5589.815506791183 5991.3495503432505 380.26495446876083  8221.7397385894255 11993.833477179976 1008.7029464190105  10861.002958401325 17999.999999999989 1564.9587135254774  
3161.9850072555232 0 -314.96260501619156  5735.9627370610406 5991.3495503432569 389.22575307403929  8310.7086965299059 11993.833477179978 1017.4166997165603  10893.151130934013 18000.000000000007 1568.4477734130664  
3367.2519802850638 0 -309.34046684961515  5883.7696399431788 5991.3495503432532 399.23835581133562  8400.6880209355513 11993.833477179985 1026.8094339166603  10925.664382687966 18000 1572.1862333898482  
3574.273101117742 0 -302.46429709585448  6032.8396624131292 5991.3495503432514 410.20491487877121  8491.4362740377019 11993.833477179971 1036.8126077409777  10958.455484767637 18000 1576.1483937057817  
3782.4859894472556 0 -294.49121343850572  6182.7678418178812 5991.3495503432578 421.99595729069028  8582.706935768827 11993.833477179987 1047.3382018097059  10991.435356262788 18000.000000000007 1580.3014795663885  
3991.336544024964 0 -285.4967833755527  6333.1551828505735 5991.3495503432478 434.54097431917506  8674.2571314320485 11993.833477179975 1058.3342887834242  11024.516231355643 18000 1584.6257957159651  
4268.638022465746 0 -272.40813865352067  6532.8320915941431 5991.3495503432587 452.02303122744223  8795.8129593171998 11993.83347717998 1073.4382951274179  11068.439387052244 17999.999999999993 1590.5496687630382  
4545.8773237197502 0 -257.76318580366546  6732.4642261106228 5991.3495503432496 470.62393094808505  8917.3415403491126 11993.833477179976 1089.2243878741035  11112.352693326335 18000.000000000015 1596.7201316911705  
4821.5820144997333 0 -241.95142589337166  6930.9913299774344 5991.3495503432532 490.02042659877804  9038.1974141205465 11993.833477179975 1105.471693551716  11156.02292736237 17999.999999999982 1603.0548525537451  
5025.0277060062817 0 -229.71854764074627  7077.4867875378004 5991.3495503432569 504.7403121383839  9127.3783699565465 11993.833477179982 1117.7092365636165  11188.24769762357 18000.000000000022 1607.8191825873673  
5225.7109867799927 0 -217.14124806900065  7221.9931049451807 5991.3495503432496 519.62793234567494  9215.3484146419396 11993.833477179975 1130.0050578395585  11220.034917950054 17999.999999999993 1612.5999943154616  
5423.0685799349894 0 -204.34496889056621  7364.1046967015809 5991.3495503432569 534.57661008137643  9301.8606328128262 11993.833477179975 1142.2850073773941  11251.295365174479 18000 1617.3695369219099  
5616.5721974100197 0 -191.38053735510721  7503.4411442913997 5991.3495503432532 549.5343801221627  9386.6834562460062 11993.833477179982 1154.5089413371134  11281.945363283327 18000 1622.1124091077143  
5805.6590467300248 0 -178.32683920688788  7639.5972072756103 5991.3495503432569 564.4280969310505  9469.5701742477104 11993.833477179982 1166.6231915552135  11311.895765029327 18000.000000000004 1626.808267815903  
6047.7684118737161 0 -161.17588348000089  7813.9332771248673 5991.3495503432487 583.8127661687131  9575.6994468200028 11993.833477179971 1182.3264745870752  11350.244668529333 17999.999999999989 1632.8903648829739  
6282.0827568370614 0 -143.95916448771902  7982.6563697597239 5991.3495503432514 603.01828355976124  9678.411758545928 11993.833477179982 1197.795843811853  11387.358879538226 18000.000000000007 1638.8748949146352  
6507.8140798545846 0 -126.82593261495876  8145.199073558173 5991.3495503432569 621.91430302690492  9777.3616799620322 11993.833477179971 1212.9391108344444  11423.113581730035 17999.999999999993 1644.727210492646  
6667.387721506062 0 -114.43456199553236  8260.1035146086488 5991.3495503432496 635.47356026662374  9847.3112030215161 11993.833477179982 1223.7670693349733  11448.389242332141 18000 1648.9087712478663  
6819.6504336052385 0 -102.3923539317618  8369.7435635572074 5991.3495503432605 648.56896569175888  9914.0559622744713 11993.833477179978 1234.1950238278655  11472.506887897194 18000 1652.9335032098729  
6964.1955421198745 0 -90.737244283300299  8473.8263815245009 5991.3495503432496 661.16139017041928  9977.417695685197 11993.833477179976 1244.1925814564511  11495.402104236462 18000 1656.7897386090624  
7100.6032926851076 0 -79.52191989978715  8572.0497260189222 5991.3495503432532 673.20069720320328  10037.212387295083 11993.833477179984 1253.7224283747905  11517.008402836236 18000.000000000007 1660.4632801339844  
7228.5028233024432 0 -68.827232852376468  8664.1465356986027 5991.3495503432523 684.61789404832348  10093.277486158662 11993.833477179971 1262.7365124275357  11537.267045869277 17999.999999999985 1663.9361379429906  
7381.0313400032828 0 -55.850290636617764  8773.9779830417192 5991.3495503432523 698.39410104632634  10160.138763329716 11993.833477179975 1273.5843588225184  11561.426790657955 18000 1668.1131747715065  
7521.0323015240019 0 -43.681368424168383  8874.7886965798607 5991.3495503432559 711.2244685661168  10221.50854848551 11993.833477179985 1283.6545831595904  11583.602239977161 18000.000000000011 1671.9881342124118  
7648.3763326413537 0 -32.340712674890362  8966.4855046910743 5991.3495503432532 723.09067054204388  10277.330147359784 11993.833477179978 1292.9339167413564  11603.77289018685 17999.999999999993 1675.5560019329414  
7728.9076462875501 0 -25.085212081332763  9024.47381729054 5991.3495503432532 730.6550754629958  10312.631255697774 11993.833477179978 1298.8389136083356  11616.528645365848 18000.000000000007 1677.8256102364358  
7799.1857478352231 0 -18.691094070000911  9075.0790777401417 5991.3495503432532 737.30129760430953  10343.437846499462 11993.833477179971 1304.0195232171545  11627.660342039861 17999.999999999985 1679.8161714260436  
7859.0246519681123 0 -13.172655799374567  9118.1673706978509 5991.349550343255 743.01365264056699  10369.668386873958 11993.833477179985 1308.4631705341721  11637.138522829766 18000.000000000015 1681.5228375144616  
7908.2255657178721 0 -8.6181171019505278  9153.5955498490457 5991.3495503432496 747.72283039413492  10391.235739608685 11993.833477179973 1312.1243858975586  11644.931698074859 17999.999999999993 1682.9288241672946  
7946.6695201477287 0 -5.0200692002921867  9181.2779474877716 5991.3495503432605 751.43071281857453  10408.087746626858 11993.833477179978 1315.0024010629566  11651.021028298674 18000.000000000011 1684.0336603375226  
7976.0438063234551 0 -2.2588285567192852  9202.4295346081381 5991.3495503432514 754.27250449282053  10420.964043402455 11993.833477179984 1317.206736551153  11655.673765822052 18000 1684.8797596909633  
7992.6193228556858 0 -0.69790404107824855  9214.3650948707127 5991.3495503432514 755.87810005226345  10428.229963639746 11993.833477179967 1318.4518370254455  11658.299245410673 17999.999999999993 1685.3576467294008  
8000 0 0  9219.6797072226418 5991.3495503432532 756.59509393505095  10431.465303905394 11993.833477179978 1319.0075125271433  11659.468306999999 18000 1685.570892  

0 4
0.00023577900874319988 1
0.00096490313536987614 1
0.0022039304671436066 1
0.0039655141659628674 1
0.0062508129103843561 1
0.0090594625803614368 1
0.012390165823597794 1
0.01623466940094568 1
0.025397470708766752 1
0.030681222860159455 1
0.036410776740318278 1
0.042555548856953423 1
0.049093450697834509 1
0.056006637352962282 1
0.063267350572390357 1
0.070855713794920727 1
0.086908188654322899 1
0.095334206101260782 1
0.1039969942139392 1
0.11287909327624507 1
0.1219648581988222 1
0.13123653418535661 1
0.14067748814765907 1
0.150272204982283 1
0.16987913920472003 1
0.17986373305359055 1
0.18995336775008889 1
0.20013790595554057 1
0.21040435448057812 1
0.22074805273011444 1
0.23115320084999302 1
0.24162010946429485 1
0.26269362096627286 1
0.27329038310825937 1
0.28391259243888595 1
0.29456287070896353 1
0.3052404083793917 1
0.31593938895541973 1
0.32707061846946139 1
0.3383830382394748 1
0.34968840628731962 1
0.372194594508371 1
0.38336057152829761 1
0.39445840556286771 1
0.40547932856039665 1
0.41641337819222873 1
0.42725582564371084 1
0.43800457939679471 1
0.44865854843484576 1
0.46969057135122683 1
0.4800763387756008 1
0.4903803248482449 1
0.50064504254784759 1
0.51093362916342677 1
0.52112691851306803 1
0.53115566767577627 1
0.54107077551140004 1
0.56068415425695495 1
0.57041154744659772 1
0.58010103188976625 1
0.58976235868904037 1
0.59940139601820974 1
0.60902428639022843 1
0.61863601560755077 1
0.62824074738175495 1
0.64744152703752877 1
0.65705197978444851 1
0.66667114360005353 1
0.67631636524321093 1
0.68614628192544025 1
0.69639272809618891 1
0.70666177670665598 1
0.71695315171282115 1
0.72725705549451114 1
0.74787089299403642 1
0.75816552075830934 1
0.76844216227007023 1
0.77869169052514764 1
0.78890401941339561 1
0.79906852112169691 1
0.80917399689826031 1
0.8192090840244356 1
0.83901097216148435 1
0.84875498414975092 1
0.85837120460240168 1
0.86784390889849117 1
0.87716343449367939 1
0.88630314595770732 1
0.89524614756026466 1
0.90397405985656065 1
0.92069258036137824 1
0.92864211224293247 1
0.93627964118396179 1
0.94359030719936543 1
0.95054351474008758 1
0.95711540334744105 1
0.96328558907324091 1
0.96903025027975775 1
0.97916948940900306 1
0.98352285632881298 1
0.98738424660081336 1
0.99074095076565505 1
0.99357880555137734 1
0.99590088968108303 1
0.99769814889934949 1
0.99897824806800328 1
1 4

0 4
1 4

1 8000 0 0 0 1 0 -0.9999959400175088 0 0.0028495523330967689 0.0028495523330967689 -0 0.9999959400175088 
Triangulations 0

TShapes 10
Ve
1e-07
8000 5.29395592033938e-23 3.73034936274053e-14
0 0

0101101
*
Ed
 1e-07 1 1 0
1  1 0 0 5000
3  1 2C0 1 0 0 5000
0

0101000
+10 0 -10 1 *
Ed
 1e-07 1 1 0
1  2 0 0 1
2  3 2 0 0 1
2  4 1 0 0 1
2  5 1 2 0 1
0

0101100
+10 0 -10 0 *
Wi

0101000
+9 0 -9 0 -8 0 +8 1 *
Fa
0  1e-07 1 0

0101000
+7 0 *
Wi

0101100
+8 0 *
Fa
0  1e-07 3 0

0111000
-5 0 *
Sh

0101000
-6 0 +4 0 -4 1 *
So

0100000
-3 0 *
Co

1100000
+2 0 *

+1 0 
##EGADS HEADER FILE-REV 1 ##
0
  1  1  3  3  3  2  0
    0 0 0
